<svg width="119" height="26" viewBox="0 0 119 26" fill="none" xmlns="http://www.w3.org/2000/svg">
  <path d="M3.692 13 12 4.693V1L0 13z" fill="#0A83FB"/>
  <path d="M12 21.308 3.692 13H0l12 12z" fill="#0057AD"/>
  <path d="M20.307 13 12 21.308V25l12-12z" fill="#003365"/>
  <path d="m19.385 12.077.922.923H24l-2.77-2.769zm-1.846-5.538L12 1v3.693l3.692 3.691z" fill="#00283D"/>
  <path d="m19.385 12.077 1.845-1.846-3.692-3.692-1.846 1.845z" fill="#00283D"/>
  <path fill-rule="evenodd" clip-rule="evenodd" d="M12.018 17.585 22.146 7.431l-1.841-1.846-8.287 8.308z" fill="#006EDB"/>
  <path d="m7.415 12.97 4.603 4.615v-3.692l-2.762-2.77z" fill="#006EDB"/>
  <path d="M37.209 7.623c2.22 0 3.919 1.459 3.919 3.656s-1.715 3.655-3.968 3.655h-3.38v3.82H32V7.623zm-.13 5.672c1.208 0 2.22-.787 2.22-1.983 0-1.214-1.012-2.017-2.22-2.017h-3.3v4zm6.159 5.459v-8.492h1.764v1.64c.392-1.033 1.665-1.886 3.461-1.886v1.46c-2.139 0-3.429 1.229-3.461 3.032v4.246zM53.903 19c-2.563 0-4.62-2-4.62-4.475 0-2.476 2.057-4.492 4.62-4.492s4.621 2.016 4.621 4.492S56.467 19 53.904 19m0-1.59c1.666 0 2.923-1.295 2.923-2.885 0-1.607-1.257-2.902-2.923-2.902-1.665 0-2.922 1.295-2.922 2.902 0 1.59 1.257 2.885 2.922 2.885M64.46 19c-2.564 0-4.621-2-4.621-4.475 0-2.476 2.057-4.492 4.62-4.492s4.622 2.016 4.622 4.492S67.023 19 64.46 19m0-1.59c1.665 0 2.922-1.295 2.922-2.885 0-1.607-1.257-2.902-2.922-2.902s-2.923 1.295-2.923 2.902c0 1.59 1.257 2.885 2.923 2.885m7.568 1.344v-6.066h-1.796v-1.442h1.796C72.028 8.54 73.514 7 75.62 7c1.796 0 2.384.885 2.384.885V9.46s-.833-.885-2.139-.885-2.074.688-2.074 2.672h3.805v1.442H73.79v6.066zm7.699 0V7.623H81.8l3.2 4.95v.017l3.217-4.967h2.074v11.131h-1.763v-8.442l-2.71 4.13H84.2l-2.711-4.13v8.442zM96.825 19c-2.58 0-4.409-2-4.409-4.475 0-2.476 1.83-4.492 4.41-4.492 1.224 0 2.252.475 2.84 1.065v-.82h1.747v8.476h-1.78l.017-.869C99.095 18.46 98.197 19 96.825 19m.13-1.574c1.568 0 2.81-1.065 2.81-2.918 0-1.836-1.242-2.901-2.81-2.901-1.583 0-2.775 1.295-2.775 2.901 0 1.607 1.192 2.918 2.776 2.918m7.084 1.328v-8.492h1.764v1.64c.392-1.033 1.665-1.886 3.462-1.886v1.46c-2.14 0-3.43 1.229-3.462 3.032v4.246zm12.69 0-3.445-4.23-.784.673v3.557h-1.763V7.623l1.763-.295v5.934l3.56-2.983h2.286l-3.756 3.164L119 18.754z" fill="#DADDE5"/>
</svg>
